<svg width="16" height="23" viewBox="0 0 16 23" fill="none" xmlns="http://www.w3.org/2000/svg">
<path d="M9.49375 22.1535L5.89615 22.1383L5.93627 15.1038L1.4877 16.8546L7.72421 1.80858L13.9712 16.8526L9.53827 15.1026L9.49375 22.1535Z" fill="black"/>
<path d="M7.7725 3.16216L12.9628 15.56L9.04888 14.0369L9.02923 21.3229L6.63136 21.3216L6.65101 14.0357L2.66731 15.5597L7.7725 3.16216ZM6.66457 2.70717L1.56099 15.1315L0.486023 17.7336L3.11743 16.6993L5.42785 15.7811L5.41684 21.33L5.41922 22.5342L10.215 22.5366L10.2126 21.3325L10.234 15.7776L12.5362 16.6931L15.1619 17.7129L14.086 15.1055L8.89573 2.70765L7.7779 0.0274963L6.66457 2.70717Z" fill="white"/>
</svg>
